<svg xmlns="http://www.w3.org/2000/svg" viewBox="0 0 620 320" width="620" height="320" role="img" aria-label="End-to-end RTF by lane count. RTF, before finished-tail shedding  ·  4763-word article, 201 segments  ·  f16, M4 / 16 GB">
<style>
  text { font-family: system-ui, -apple-system, "Segoe UI", sans-serif; }
  .surface { fill: #fcfcfb; }
  .title   { fill: #0b0b0b; font-size: 15px; font-weight: 600; }
  .sub     { fill: #52514e; font-size: 11.5px; }
  .axis    { fill: #898781; font-size: 11px; }
  .value   { fill: #0b0b0b; font-size: 11.5px; font-weight: 600; }
  .note    { fill: #52514e; font-size: 11px; }
  .grid    { stroke: #e1e0d9; stroke-width: 1; }
  .base    { stroke: #c3c2b7; stroke-width: 1; }
  .ok      { fill: #2a78d6; }
  .okline  { stroke: #2a78d6; fill: none; stroke-width: 2; }
  .bad     { fill: #d03b3b; }
  .badline { stroke: #d03b3b; fill: none; stroke-width: 2; }
  .ring    { stroke: #fcfcfb; stroke-width: 2; }
  .onbar   { fill: #fcfcfb; font-size: 11px; }
  .ref     { stroke: #52514e; stroke-width: 1.5; stroke-dasharray: 5 4; }
  @media (prefers-color-scheme: dark) {
    .surface { fill: #1a1a19; }
    .title   { fill: #ffffff; }
    .sub, .note { fill: #c3c2b7; }
    .grid    { stroke: #2c2c2a; }
    .base    { stroke: #383835; }
    .value   { fill: #ffffff; }
    .ok      { fill: #3987e5; }
    .okline  { stroke: #3987e5; }
    .bad     { fill: #e66767; }
    .badline { stroke: #e66767; }
    .ring    { stroke: #1a1a19; }
    .ref     { stroke: #c3c2b7; }
  }
</style>
<rect class="surface" width="620" height="320" rx="6"/>
<text class="title" x="62" y="24">End-to-end RTF by lane count</text>
<text class="sub" x="62" y="41">RTF, before finished-tail shedding  ·  4763-word article, 201 segments  ·  f16, M4 / 16 GB</text>
<line class="grid" x1="62" y1="268.0" x2="602" y2="268.0"/>
<text class="axis" x="54" y="272.0" text-anchor="end">0.00</text>
<line class="grid" x1="62" y1="196.0" x2="602" y2="196.0"/>
<text class="axis" x="54" y="200.0" text-anchor="end">0.25</text>
<line class="grid" x1="62" y1="124.0" x2="602" y2="124.0"/>
<text class="axis" x="54" y="128.0" text-anchor="end">0.50</text>
<line class="grid" x1="62" y1="52.0" x2="602" y2="52.0"/>
<text class="axis" x="54" y="56.0" text-anchor="end">0.75</text>
<path class="ok" d="M98.5,268.0 L98.5,204.32000000000002 Q98.5,200.32000000000002 102.5,200.32000000000002 L156.5,200.32000000000002 Q160.5,200.32000000000002 160.5,204.32000000000002 L160.5,268.0 Z"/>
<text class="value" x="129.5" y="192.3" text-anchor="middle">0.235</text>
<text class="axis" x="129.5" y="286" text-anchor="middle">24</text>
<path class="ok" d="M233.5,268.0 L233.5,214.4 Q233.5,210.4 237.5,210.4 L291.5,210.4 Q295.5,210.4 295.5,214.4 L295.5,268.0 Z"/>
<text class="value" x="264.5" y="202.4" text-anchor="middle">0.200</text>
<text class="axis" x="264.5" y="286" text-anchor="middle">48</text>
<path class="bad" d="M368.5,268.0 L368.5,70.11200000000001 Q368.5,66.11200000000001 372.5,66.11200000000001 L426.5,66.11200000000001 Q430.5,66.11200000000001 430.5,70.11200000000001 L430.5,268.0 Z"/>
<text class="value" x="399.5" y="58.1" text-anchor="middle">0.701</text>
<text class="onbar" x="399.5" y="84.1" text-anchor="middle">swap</text>
<text class="axis" x="399.5" y="286" text-anchor="middle">56</text>
<path class="bad" d="M503.5,268.0 L503.5,85.66399999999999 Q503.5,81.66399999999999 507.5,81.66399999999999 L561.5,81.66399999999999 Q565.5,81.66399999999999 565.5,85.66399999999999 L565.5,268.0 Z"/>
<text class="value" x="534.5" y="73.7" text-anchor="middle">0.647</text>
<text class="onbar" x="534.5" y="99.7" text-anchor="middle">swap</text>
<text class="axis" x="534.5" y="286" text-anchor="middle">64</text>
<line class="base" x1="62" y1="268" x2="602" y2="268"/>
<text class="axis" x="332.0" y="304" text-anchor="middle">QWEN3TTS_MAX_BATCH (lanes)</text>
<line class="ref" x1="62" y1="210.4" x2="602" y2="210.4"/>
<text class="note" x="602" y="203.4" text-anchor="end">5× realtime = RTF 0.200</text>
<circle class="ok" cx="474" cy="20" r="4"/>
<text class="note" x="483" y="24">renders</text>
<circle class="bad" cx="540" cy="20" r="4"/>
<text class="note" x="549" y="24">swaps</text>
</svg>